<svg width="585" height="822" viewBox="0 0 585 822" fill="none" xmlns="http://www.w3.org/2000/svg">
<path d="M3.66928 816.308L2.97705 817.638L5.63848 819.023L6.33072 817.692L3.66928 816.308ZM430 -1.72674e-06L415.395 9.31057L430.761 17.3038L430 -1.72674e-06ZM6.33072 817.692L7.71059 815.04L5.04915 813.655L3.66928 816.308L6.33072 817.692ZM10.4703 809.734L13.2301 804.429L10.5686 803.045L7.80889 808.35L10.4703 809.734ZM15.9898 799.124L18.7495 793.819L16.0881 792.434L13.3284 797.74L15.9898 799.124ZM21.5093 788.514L24.269 783.208L21.6076 781.824L18.8479 787.129L21.5093 788.514ZM27.0288 777.903L29.7885 772.598L27.1271 771.214L24.3673 776.519L27.0288 777.903ZM32.5483 767.293L35.308 761.988L32.6466 760.603L29.8868 765.908L32.5483 767.293ZM38.0677 756.682L40.8275 751.377L38.166 749.993L35.4063 755.298L38.0677 756.682ZM43.5872 746.072L46.347 740.767L43.6855 739.382L40.9258 744.688L43.5872 746.072ZM49.1067 735.462L51.8664 730.157L49.205 728.772L46.4453 734.077L49.1067 735.462ZM54.6262 724.851L57.3859 719.546L54.7245 718.162L51.9647 723.467L54.6262 724.851ZM60.1457 714.241L62.9054 708.936L60.244 707.551L57.4842 712.856L60.1457 714.241ZM65.6651 703.631L68.4249 698.325L65.7634 696.941L63.0037 702.246L65.6651 703.631ZM71.1846 693.02L73.9444 687.715L71.2829 686.33L68.5232 691.636L71.1846 693.02ZM76.7041 682.41L79.4638 677.105L76.8024 675.72L74.0427 681.025L76.7041 682.41ZM82.2236 671.799L84.9833 666.494L82.3219 665.11L79.5621 670.415L82.2236 671.799ZM87.7431 661.189L90.5028 655.884L87.8414 654.499L85.0816 659.805L87.7431 661.189ZM93.2625 650.579L96.0223 645.273L93.3608 643.889L90.6011 649.194L93.2625 650.579ZM98.782 639.968L101.542 634.663L98.8803 633.279L96.1206 638.584L98.782 639.968ZM104.301 629.358L107.061 624.053L104.4 622.668L101.64 627.973L104.301 629.358ZM109.821 618.747L112.581 613.442L109.919 612.058L107.16 617.363L109.821 618.747ZM115.34 608.137L118.1 602.832L115.439 601.447L112.679 606.753L115.34 608.137ZM120.86 597.527L123.62 592.221L120.958 590.837L118.199 596.142L120.86 597.527ZM126.379 586.916L129.139 581.611L126.478 580.227L123.718 585.532L126.379 586.916ZM131.899 576.306L134.659 571.001L131.997 569.616L129.237 574.921L131.899 576.306ZM137.418 565.695L140.178 560.39L137.517 559.006L134.757 564.311L137.418 565.695ZM142.938 555.085L145.698 549.78L143.036 548.395L140.276 553.701L142.938 555.085ZM148.457 544.475L151.217 539.17L148.556 537.785L145.796 543.09L148.457 544.475ZM153.977 533.864L156.737 528.559L154.075 527.175L151.315 532.48L153.977 533.864ZM159.496 523.254L162.256 517.949L159.595 516.564L156.835 521.869L159.496 523.254ZM165.016 512.644L167.776 507.338L165.114 505.954L162.354 511.259L165.016 512.644ZM170.535 502.033L173.295 496.728L170.634 495.343L167.874 500.649L170.535 502.033ZM176.055 491.423L178.814 486.118L176.153 484.733L173.393 490.038L176.055 491.423ZM181.574 480.812L184.334 475.507L181.673 474.123L178.913 479.428L181.574 480.812ZM187.094 470.202L189.853 464.897L187.192 463.512L184.432 468.818L187.094 470.202ZM192.613 459.592L195.373 454.286L192.711 452.902L189.952 458.207L192.613 459.592ZM198.133 448.981L200.892 443.676L198.231 442.292L195.471 447.597L198.133 448.981ZM203.652 438.371L206.412 433.066L203.75 431.681L200.991 436.986L203.652 438.371ZM209.172 427.76L211.931 422.455L209.27 421.071L206.51 426.376L209.172 427.76ZM214.691 417.15L217.451 411.845L214.789 410.46L212.03 415.766L214.691 417.15ZM220.211 406.54L222.97 401.234L220.309 399.85L217.549 405.155L220.211 406.54ZM225.73 395.929L228.49 390.624L225.828 389.24L223.069 394.545L225.73 395.929ZM231.25 385.319L234.009 380.014L231.348 378.629L228.588 383.934L231.25 385.319ZM236.769 374.708L239.529 369.403L236.867 368.019L234.108 373.324L236.769 374.708ZM242.289 364.098L245.048 358.793L242.387 357.408L239.627 362.714L242.289 364.098ZM247.808 353.488L250.568 348.183L247.906 346.798L245.147 352.103L247.808 353.488ZM253.327 342.877L256.087 337.572L253.426 336.188L250.666 341.493L253.327 342.877ZM258.847 332.267L261.607 326.962L258.945 325.577L256.185 330.883L258.847 332.267ZM264.366 321.657L267.126 316.352L264.465 314.967L261.705 320.272L264.366 321.657ZM269.886 311.046L272.646 305.741L269.984 304.357L267.224 309.662L269.886 311.046ZM275.405 300.436L278.165 295.131L275.504 293.746L272.744 299.052L275.405 300.436ZM280.925 289.826L283.684 284.521L281.023 283.136L278.263 288.441L280.925 289.826ZM286.444 279.215L289.204 273.91L286.542 272.526L283.783 277.831L286.444 279.215ZM291.964 268.605L294.723 263.3L292.062 261.915L289.302 267.221L291.964 268.605ZM297.483 257.995L300.243 252.69L297.581 251.305L294.822 256.61L297.483 257.995ZM303.003 247.384L305.762 242.079L303.101 240.695L300.341 246L303.003 247.384ZM308.522 236.774L311.282 231.469L308.62 230.084L305.861 235.39L308.522 236.774ZM314.041 226.164L316.801 220.859L314.14 219.474L311.38 224.779L314.041 226.164ZM319.561 215.553L322.321 210.248L319.659 208.864L316.899 214.169L319.561 215.553ZM325.08 204.943L327.84 199.638L325.179 198.253L322.419 203.559L325.08 204.943ZM330.6 194.333L333.359 189.028L330.698 187.643L327.938 192.948L330.6 194.333ZM336.119 183.722L338.879 178.417L336.218 177.033L333.458 182.338L336.119 183.722ZM341.639 173.112L344.398 167.807L341.737 166.422L338.977 171.728L341.639 173.112ZM347.158 162.502L349.918 157.196L347.256 155.812L344.497 161.117L347.158 162.502ZM352.678 151.891L355.437 146.586L352.776 145.202L350.016 150.507L352.678 151.891ZM358.197 141.281L360.957 135.976L358.295 134.591L355.536 139.897L358.197 141.281ZM363.716 130.671L366.476 125.365L363.815 123.981L361.055 129.286L363.716 130.671ZM369.236 120.06L371.996 114.755L369.334 113.371L366.574 118.676L369.236 120.06ZM374.755 109.45L377.515 104.145L374.854 102.76L372.094 108.066L374.755 109.45ZM380.275 98.8397L383.035 93.5345L380.373 92.15L377.613 97.4552L380.275 98.8397ZM385.794 88.2293L388.554 82.9242L385.893 81.5397L383.133 86.8448L385.794 88.2293ZM391.314 77.619L394.073 72.3138L391.412 70.9294L388.652 76.2345L391.314 77.619ZM396.833 67.0086L399.593 61.7035L396.931 60.319L394.172 65.6242L396.833 67.0086ZM402.353 56.3983L405.112 51.0931L402.451 49.7087L399.691 55.0139L402.353 56.3983ZM407.872 45.788L410.632 40.4828L407.97 39.0983L405.211 44.4035L407.872 45.788ZM413.392 35.1776L416.151 29.8725L413.49 28.488L410.73 33.7932L413.392 35.1776ZM418.911 24.5673L421.671 19.2621L419.009 17.8777L416.25 23.1828L418.911 24.5673ZM424.43 13.957L427.19 8.65181L424.529 7.26734L421.769 12.5725L424.43 13.957ZM2.33856 815.616L0.954094 818.277L6.27697 821.046L7.66144 818.384L2.33856 815.616ZM430 -1.72674e-06L400.79 18.6211L431.521 34.6076L430 -1.72674e-06ZM7.66144 818.384L9.04131 815.732L3.71843 812.963L2.33856 815.616L7.66144 818.384ZM11.801 810.427L14.5608 805.121L9.23791 802.353L6.47817 807.658L11.801 810.427ZM17.3205 799.816L20.0803 794.511L14.7574 791.742L11.9977 797.047L17.3205 799.816ZM22.84 789.206L25.5997 783.901L20.2769 781.132L17.5171 786.437L22.84 789.206ZM28.3595 778.596L31.1192 773.29L25.7964 770.521L23.0366 775.827L28.3595 778.596ZM33.879 767.985L36.6387 762.68L31.3158 759.911L28.5561 765.216L33.879 767.985ZM39.3984 757.375L42.1582 752.07L36.8353 749.301L34.0756 754.606L39.3984 757.375ZM44.9179 746.764L47.6777 741.459L42.3548 738.69L39.5951 743.995L44.9179 746.764ZM50.4374 736.154L53.1972 730.849L47.8743 728.08L45.1145 733.385L50.4374 736.154ZM55.9569 725.544L58.7166 720.238L53.3938 717.469L50.634 722.775L55.9569 725.544ZM61.4764 714.933L64.2361 709.628L58.9132 706.859L56.1535 712.164L61.4764 714.933ZM66.9958 704.323L69.7556 699.018L64.4327 696.249L61.673 701.554L66.9958 704.323ZM72.5153 693.712L75.2751 688.407L69.9522 685.638L67.1925 690.943L72.5153 693.712ZM78.0348 683.102L80.7946 677.797L75.4717 675.028L72.7119 680.333L78.0348 683.102ZM83.5543 672.492L86.314 667.186L80.9912 664.417L78.2314 669.723L83.5543 672.492ZM89.0738 661.881L91.8335 656.576L86.5106 653.807L83.7509 659.112L89.0738 661.881ZM94.5933 651.271L97.353 645.966L92.0301 643.197L89.2704 648.502L94.5933 651.271ZM100.113 640.66L102.872 635.355L97.5496 632.586L94.7899 637.892L100.113 640.66ZM105.632 630.05L108.392 624.745L103.069 621.976L100.309 627.281L105.632 630.05ZM111.152 619.44L113.911 614.134L108.589 611.366L105.829 616.671L111.152 619.44ZM116.671 608.829L119.431 603.524L114.108 600.755L111.348 606.06L116.671 608.829ZM122.191 598.219L124.95 592.914L119.628 590.145L116.868 595.45L122.191 598.219ZM127.71 587.608L130.47 582.303L125.147 579.534L122.387 584.84L127.71 587.608ZM133.23 576.998L135.989 571.693L130.666 568.924L127.907 574.229L133.23 576.998ZM138.749 566.388L141.509 561.083L136.186 558.314L133.426 563.619L138.749 566.388ZM144.269 555.777L147.028 550.472L141.705 547.703L138.946 553.008L144.269 555.777ZM149.788 545.167L152.548 539.862L147.225 537.093L144.465 542.398L149.788 545.167ZM155.308 534.557L158.067 529.251L152.744 526.482L149.985 531.788L155.308 534.557ZM160.827 523.946L163.587 518.641L158.264 515.872L155.504 521.177L160.827 523.946ZM166.347 513.336L169.106 508.031L163.783 505.262L161.024 510.567L166.347 513.336ZM171.866 502.725L174.626 497.42L169.303 494.651L166.543 499.956L171.866 502.725ZM177.385 492.115L180.145 486.81L174.822 484.041L172.063 489.346L177.385 492.115ZM182.905 481.505L185.665 476.199L180.342 473.43L177.582 478.736L182.905 481.505ZM188.424 470.894L191.184 465.589L185.861 462.82L183.102 468.125L188.424 470.894ZM193.944 460.284L196.704 454.979L191.381 452.21L188.621 457.515L193.944 460.284ZM199.463 449.673L202.223 444.368L196.9 441.599L194.141 446.904L199.463 449.673ZM204.983 439.063L207.743 433.758L202.42 430.989L199.66 436.294L204.983 439.063ZM210.502 428.453L213.262 423.147L207.939 420.378L205.179 425.684L210.502 428.453ZM216.022 417.842L218.782 412.537L213.459 409.768L210.699 415.073L216.022 417.842ZM221.541 407.232L224.301 401.927L218.978 399.158L216.218 404.463L221.541 407.232ZM227.061 396.621L229.821 391.316L224.498 388.547L221.738 393.853L227.061 396.621ZM232.58 386.011L235.34 380.706L230.017 377.937L227.257 383.242L232.58 386.011ZM238.1 375.401L240.86 370.095L235.537 367.327L232.777 372.632L238.1 375.401ZM243.619 364.79L246.379 359.485L241.056 356.716L238.296 362.021L243.619 364.79ZM249.139 354.18L251.898 348.875L246.576 346.106L243.816 351.411L249.139 354.18ZM254.658 343.57L257.418 338.264L252.095 335.495L249.335 340.801L254.658 343.57ZM260.178 332.959L262.937 327.654L257.614 324.885L254.855 330.19L260.178 332.959ZM265.697 322.349L268.457 317.044L263.134 314.275L260.374 319.58L265.697 322.349ZM271.217 311.739L273.976 306.433L268.653 303.665L265.894 308.97L271.217 311.739ZM276.736 301.128L279.496 295.823L274.173 293.054L271.413 298.359L276.736 301.128ZM282.255 290.518L285.015 285.213L279.692 282.444L276.933 287.749L282.255 290.518ZM287.775 279.908L290.535 274.602L285.212 271.833L282.452 277.139L287.775 279.908ZM293.294 269.297L296.054 263.992L290.731 261.223L287.971 266.528L293.294 269.297ZM298.814 258.687L301.573 253.382L296.251 250.613L293.491 255.918L298.814 258.687ZM304.333 248.077L307.093 242.771L301.77 240.002L299.01 245.308L304.333 248.077ZM309.853 237.466L312.612 232.161L307.29 229.392L304.53 234.697L309.853 237.466ZM315.372 226.856L318.132 221.551L312.809 218.782L310.049 224.087L315.372 226.856ZM320.892 216.246L323.651 210.94L318.328 208.172L315.569 213.477L320.892 216.246ZM326.411 205.635L329.171 200.33L323.848 197.561L321.088 202.866L326.411 205.635ZM331.93 195.025L334.69 189.72L329.367 186.951L326.608 192.256L331.93 195.025ZM337.45 184.415L340.21 179.109L334.887 176.34L332.127 181.646L337.45 184.415ZM342.969 173.804L345.729 168.499L340.406 165.73L337.647 171.035L342.969 173.804ZM348.489 163.194L351.249 157.889L345.926 155.12L343.166 160.425L348.489 163.194ZM354.008 152.584L356.768 147.278L351.445 144.509L348.685 149.815L354.008 152.584ZM359.528 141.973L362.287 136.668L356.965 133.899L354.205 139.204L359.528 141.973ZM365.047 131.363L367.807 126.058L362.484 123.289L359.724 128.594L365.047 131.363ZM370.567 120.753L373.326 115.447L368.004 112.678L365.244 117.984L370.567 120.753ZM376.086 110.142L378.846 104.837L373.523 102.068L370.763 107.373L376.086 110.142ZM381.606 99.5319L384.365 94.2267L379.042 91.4578L376.283 96.763L381.606 99.5319ZM387.125 88.9216L389.885 83.6164L384.562 80.8475L381.802 86.1526L387.125 88.9216ZM392.644 78.3112L395.404 73.0061L390.081 70.2371L387.322 75.5423L392.644 78.3112ZM398.164 67.7009L400.924 62.3957L395.601 59.6268L392.841 64.9319L398.164 67.7009ZM403.683 57.0906L406.443 51.7854L401.12 49.0164L398.36 54.3216L403.683 57.0906ZM409.203 46.4802L411.963 41.175L406.64 38.4061L403.88 43.7113L409.203 46.4802ZM414.722 35.8699L417.482 30.5647L412.159 27.7958L409.399 33.1009L414.722 35.8699ZM420.242 25.2595L423.001 19.9544L417.679 17.1854L414.919 22.4906L420.242 25.2595ZM425.761 14.6492L428.521 9.34404L423.198 6.5751L420.438 11.8803L425.761 14.6492Z" fill="#6A8E7F" fill-opacity="0.7"/>
<path d="M242.917 354.962L241.879 356.046L244.046 358.121L245.083 357.038L242.917 354.962ZM585 -4.77822e-06L568.37 4.8418L580.878 16.8229L585 -4.77822e-06ZM245.083 357.038L247.163 354.867L244.996 352.792L242.917 354.962L245.083 357.038ZM251.321 350.525L255.48 346.184L253.313 344.109L249.155 348.45L251.321 350.525ZM259.638 341.842L263.797 337.501L261.63 335.426L257.472 339.767L259.638 341.842ZM267.955 333.16L272.114 328.818L269.947 326.743L265.789 331.084L267.955 333.16ZM276.272 324.477L280.431 320.135L278.264 318.06L274.106 322.401L276.272 324.477ZM284.589 315.794L288.748 311.452L286.581 309.377L282.423 313.718L284.589 315.794ZM292.906 307.111L297.065 302.769L294.898 300.694L290.74 305.036L292.906 307.111ZM301.223 298.428L305.382 294.086L303.216 292.011L299.057 296.353L301.223 298.428ZM309.541 289.745L313.699 285.403L311.533 283.328L307.374 287.67L309.541 289.745ZM317.858 281.062L322.016 276.721L319.85 274.645L315.691 278.987L317.858 281.062ZM326.175 272.379L330.333 268.038L328.167 265.962L324.008 270.304L326.175 272.379ZM334.492 263.696L338.65 259.355L336.484 257.279L332.325 261.621L334.492 263.696ZM342.809 255.013L346.967 250.672L344.801 248.597L340.642 252.938L342.809 255.013ZM351.126 246.33L355.284 241.989L353.118 239.914L348.959 244.255L351.126 246.33ZM359.443 237.647L363.601 233.306L361.435 231.231L357.276 235.572L359.443 237.647ZM367.76 228.964L371.919 224.623L369.752 222.548L365.594 226.889L367.76 228.964ZM376.077 220.282L380.236 215.94L378.069 213.865L373.911 218.206L376.077 220.282ZM384.394 211.599L388.553 207.257L386.386 205.182L382.228 209.523L384.394 211.599ZM392.711 202.916L396.87 198.574L394.703 196.499L390.545 200.841L392.711 202.916ZM401.028 194.233L405.187 189.891L403.02 187.816L398.862 192.158L401.028 194.233ZM409.345 185.55L413.504 181.208L411.337 179.133L407.179 183.475L409.345 185.55ZM417.662 176.867L421.821 172.525L419.654 170.45L415.496 174.792L417.662 176.867ZM425.98 168.184L430.138 163.843L427.972 161.767L423.813 166.109L425.98 168.184ZM434.297 159.501L438.455 155.16L436.289 153.084L432.13 157.426L434.297 159.501ZM442.614 150.818L446.772 146.477L444.606 144.401L440.447 148.743L442.614 150.818ZM450.931 142.135L455.089 137.794L452.923 135.719L448.764 140.06L450.931 142.135ZM459.248 133.452L463.406 129.111L461.24 127.036L457.081 131.377L459.248 133.452ZM467.565 124.769L471.723 120.428L469.557 118.353L465.398 122.694L467.565 124.769ZM475.882 116.086L480.041 111.745L477.874 109.67L473.716 114.011L475.882 116.086ZM484.199 107.403L488.358 103.062L486.191 100.987L482.033 105.328L484.199 107.403ZM492.516 98.7204L496.675 94.379L494.508 92.3038L490.35 96.6453L492.516 98.7204ZM500.833 90.0375L504.992 85.696L502.825 83.6208L498.667 87.9623L500.833 90.0375ZM509.15 81.3546L513.309 77.0131L511.142 74.9379L506.984 79.2794L509.15 81.3546ZM517.467 72.6716L521.626 68.3301L519.46 66.255L515.301 70.5964L517.467 72.6716ZM525.785 63.9887L529.943 59.6472L527.777 57.572L523.618 61.9135L525.785 63.9887ZM534.102 55.3057L538.26 50.9643L536.094 48.8891L531.935 53.2305L534.102 55.3057ZM542.419 46.6228L546.577 42.2813L544.411 40.2061L540.252 44.5476L542.419 46.6228ZM550.736 37.9398L554.894 33.5984L552.728 31.5232L548.569 35.8647L550.736 37.9398ZM559.053 29.2569L563.211 24.9154L561.045 22.8402L556.886 27.1817L559.053 29.2569ZM567.37 20.574L571.529 16.2325L569.362 14.1573L565.204 18.4988L567.37 20.574ZM575.687 11.891L579.846 7.54954L577.679 5.47436L573.521 9.81583L575.687 11.891ZM241.834 353.925L239.758 356.091L244.091 360.242L246.166 358.075L241.834 353.925ZM585 -4.77822e-06L551.74 9.68361L576.756 33.6458L585 -4.77822e-06ZM246.166 358.075L248.246 355.904L243.913 351.754L241.834 353.925L246.166 358.075ZM252.404 351.563L256.563 347.222L252.23 343.071L248.071 347.413L252.404 351.563ZM260.721 342.88L264.88 338.539L260.547 334.388L256.388 338.73L260.721 342.88ZM269.038 334.197L273.197 329.856L268.864 325.705L264.705 330.047L269.038 334.197ZM277.355 325.514L281.514 321.173L277.181 317.022L273.023 321.364L277.355 325.514ZM285.673 316.831L289.831 312.49L285.498 308.339L281.34 312.681L285.673 316.831ZM293.99 308.148L298.148 303.807L293.815 299.657L289.657 303.998L293.99 308.148ZM302.307 299.465L306.465 295.124L302.132 290.974L297.974 295.315L302.307 299.465ZM310.624 290.782L314.782 286.441L310.449 282.291L306.291 286.632L310.624 290.782ZM318.941 282.1L323.099 277.758L318.766 273.608L314.608 277.949L318.941 282.1ZM327.258 273.417L331.416 269.075L327.084 264.925L322.925 269.266L327.258 273.417ZM335.575 264.734L339.734 260.392L335.401 256.242L331.242 260.583L335.575 264.734ZM343.892 256.051L348.051 251.709L343.718 247.559L339.559 251.9L343.892 256.051ZM352.209 247.368L356.368 243.026L352.035 238.876L347.876 243.218L352.209 247.368ZM360.526 238.685L364.685 234.344L360.352 230.193L356.193 234.535L360.526 238.685ZM368.843 230.002L373.002 225.661L368.669 221.51L364.51 225.852L368.843 230.002ZM377.16 221.319L381.319 216.978L376.986 212.827L372.827 217.169L377.16 221.319ZM385.477 212.636L389.636 208.295L385.303 204.144L381.144 208.486L385.477 212.636ZM393.794 203.953L397.953 199.612L393.62 195.461L389.462 199.803L393.794 203.953ZM402.112 195.27L406.27 190.929L401.937 186.779L397.779 191.12L402.112 195.27ZM410.429 186.587L414.587 182.246L410.254 178.096L406.096 182.437L410.429 186.587ZM418.746 177.905L422.904 173.563L418.571 169.413L414.413 173.754L418.746 177.905ZM427.063 169.222L431.221 164.88L426.888 160.73L422.73 165.071L427.063 169.222ZM435.38 160.539L439.538 156.197L435.205 152.047L431.047 156.388L435.38 160.539ZM443.697 151.856L447.855 147.514L443.523 143.364L439.364 147.705L443.697 151.856ZM452.014 143.173L456.173 138.831L451.84 134.681L447.681 139.022L452.014 143.173ZM460.331 134.49L464.49 130.148L460.157 125.998L455.998 130.339L460.331 134.49ZM468.648 125.807L472.807 121.465L468.474 117.315L464.315 121.656L468.648 125.807ZM476.965 117.124L481.124 112.782L476.791 108.632L472.632 112.974L476.965 117.124ZM485.282 108.441L489.441 104.1L485.108 99.9491L480.949 104.291L485.282 108.441ZM493.599 99.758L497.758 95.4166L493.425 91.2662L489.267 95.6077L493.599 99.758ZM501.917 91.0751L506.075 86.7336L501.742 82.5833L497.584 86.9247L501.917 91.0751ZM510.234 82.3922L514.392 78.0507L510.059 73.9003L505.901 78.2418L510.234 82.3922ZM518.551 73.7092L522.709 69.3677L518.376 65.2174L514.218 69.5588L518.551 73.7092ZM526.868 65.0263L531.026 60.6848L526.693 56.5344L522.535 60.8759L526.868 65.0263ZM535.185 56.3433L539.343 52.0019L535.01 47.8515L530.852 52.1929L535.185 56.3433ZM543.502 47.6604L547.661 43.3189L543.328 39.1685L539.169 43.51L543.502 47.6604ZM551.819 38.9774L555.978 34.636L551.645 30.4856L547.486 34.8271L551.819 38.9774ZM560.136 30.2945L564.295 25.953L559.962 21.8026L555.803 26.1441L560.136 30.2945ZM568.453 21.6116L572.612 17.2701L568.279 13.1197L564.12 17.4612L568.453 21.6116ZM576.77 12.9286L580.929 8.58714L576.596 4.43676L572.437 8.77823L576.77 12.9286Z" fill="#4DA1A9" fill-opacity="0.7"/>
<circle cx="247" cy="352" r="9" fill="#9F6358"/>
</svg>
